<svg width="327" height="34" viewBox="0 0 327 34" fill="none" xmlns="http://www.w3.org/2000/svg">
<path d="M1.155 2.39V1.76H6.195L11.445 25.49H11.865L18.165 1.76H23.184L29.484 25.49H29.904L35.154 1.76H40.152V2.39L33.18 32H26.901L20.853 9.425H20.433L14.406 32H8.127L1.155 2.39ZM47.8127 32V1.76H69.4007V5.687H53.0207V14.549H67.3007V18.455H53.0207V28.073H69.8207V32H47.8127ZM77.9159 32V1.76H91.6289C97.1309 1.76 101.142 4.364 101.142 9.404C101.142 14.255 97.8449 15.725 96.1439 16.145V16.565C98.1809 16.964 102.066 18.56 102.066 23.726C102.066 29.144 97.8869 32 92.1119 32H77.9159ZM90.6419 5.624H83.1239V14.696H90.6419C93.7499 14.696 96.1019 13.31 96.0599 10.16C96.0599 7.031 93.7079 5.624 90.6419 5.624ZM91.1879 18.56H83.1239V28.136H91.1879C94.4639 28.136 96.9629 26.666 96.9629 23.369C96.9629 20.072 94.4639 18.56 91.1879 18.56ZM173.312 32V1.76H186.815C192.38 1.76 196.79 4.931 196.79 10.643C196.79 16.376 192.38 19.589 186.815 19.589H178.52V32H173.312ZM185.807 5.687H178.52V15.683H185.807C189.293 15.683 191.645 13.94 191.645 10.685C191.645 7.409 189.293 5.687 185.807 5.687ZM227.539 23.978L227.875 27.191C228.106 29.165 228.4 30.257 229.156 31.37V32H223.843C223.234 30.824 222.919 29.711 222.751 27.548L222.52 24.818C222.226 21.227 220.693 19.715 216.031 19.715H209.731V32H204.523V1.76H218.383C224.158 1.76 228.631 4.427 228.631 10.076C228.631 14.297 226.216 16.649 222.94 17.447V17.867C226.132 18.707 227.161 20.576 227.539 23.978ZM217.816 5.687H209.731V15.809H217.816C221.26 15.809 223.57 14.15 223.57 10.748C223.57 7.346 221.26 5.687 217.816 5.687ZM237.005 32V1.76H258.593V5.687H242.213V14.549H256.493V18.455H242.213V28.073H259.013V32H237.005ZM266.121 9.803C266.121 4.973 270.237 1.277 277.629 1.277C285 1.277 289.305 4.868 289.725 10.097V10.727H284.832C284.643 6.674 281.598 5.057 277.713 5.057C273.807 5.057 271.224 6.737 271.224 9.593C271.224 12.428 273.555 13.499 277.167 14.213L281.115 15.011C286.701 16.124 290.439 18.287 290.439 23.516C290.439 28.808 286.26 32.483 278.532 32.483C270.825 32.483 265.974 28.808 265.575 23.474V22.844H270.51C270.993 26.96 274.29 28.703 278.49 28.703C282.69 28.703 285.336 26.96 285.336 23.852C285.336 20.786 282.837 19.862 279.057 19.085L275.109 18.287C269.691 17.216 266.121 14.633 266.121 9.803ZM297.495 9.803C297.495 4.973 301.611 1.277 309.003 1.277C316.374 1.277 320.679 4.868 321.099 10.097V10.727H316.206C316.017 6.674 312.972 5.057 309.087 5.057C305.181 5.057 302.598 6.737 302.598 9.593C302.598 12.428 304.929 13.499 308.541 14.213L312.489 15.011C318.075 16.124 321.813 18.287 321.813 23.516C321.813 28.808 317.634 32.483 309.906 32.483C302.199 32.483 297.348 28.808 296.949 23.474V22.844H301.884C302.367 26.96 305.664 28.703 309.864 28.703C314.064 28.703 316.71 26.96 316.71 23.852C316.71 20.786 314.211 19.862 310.431 19.085L306.483 18.287C301.065 17.216 297.495 14.633 297.495 9.803Z" fill="black"/>
<path d="M137.096 17C137.096 6.30645 143.629 0 152.996 0C162.246 0 166.414 5.66667 166.883 10.7392V11.4247H162.832C162.457 7.54032 159.811 3.38172 153.02 3.38172C146.158 3.38172 141.405 8.4543 141.405 17C141.405 25.5228 146.158 30.6183 153.02 30.6183C159.787 30.6183 162.48 25.9798 162.925 22.2325H167V22.918C166.438 27.8992 162.269 34 152.996 34C143.629 34 137.096 27.6707 137.096 17Z" fill="black"/>
<path d="M137.904 17C137.904 27.6935 131.371 34 122.004 34C112.754 34 108.586 28.3333 108.117 23.2608V22.5753L112.168 22.5753C112.543 26.4597 115.189 30.6183 121.98 30.6183C128.842 30.6183 133.595 25.5457 133.595 17C133.595 8.47715 128.842 3.38172 121.98 3.38172C115.213 3.38172 112.52 8.02016 112.075 11.7675H108V11.082C108.562 6.10081 112.731 6.34507e-07 122.004 6.34507e-07C131.371 6.34507e-07 137.904 6.3293 137.904 17Z" fill="black"/>
<path d="M141 18.888H117.96V15.096L141 15.096V18.888Z" fill="black"/>
</svg>
