<svg width="59" height="34" viewBox="0 0 59 34" fill="none" xmlns="http://www.w3.org/2000/svg">
<path d="M29.0957 17C29.0957 6.30645 35.6292 0 44.9962 0C54.2461 0 58.4144 5.66667 58.8827 10.7392V11.4247H54.8315C54.4568 7.54032 51.8107 3.38172 45.0196 3.38172C38.1583 3.38172 33.4045 8.4543 33.4045 17C33.4045 25.5228 38.1583 30.6183 45.0196 30.6183C51.7872 30.6183 54.4802 25.9798 54.9252 22.2325H58.9998V22.918C58.4378 27.8992 54.2695 34 44.9962 34C35.6292 34 29.0957 27.6707 29.0957 17Z" fill="black"/>
<path d="M29.9043 17C29.9043 27.6935 23.3708 34 14.0038 34C4.75393 34 0.585627 28.3333 0.117278 23.2608V22.5753L4.1685 22.5753C4.54318 26.4597 7.18935 30.6183 13.9804 30.6183C20.8417 30.6183 25.5955 25.5457 25.5955 17C25.5955 8.47715 20.8417 3.38172 13.9804 3.38172C7.21277 3.38172 4.51976 8.02016 4.07483 11.7675H0.000187703V11.082C0.562208 6.10081 4.73052 6.34507e-07 14.0038 6.34507e-07C23.3708 6.34507e-07 29.9043 6.3293 29.9043 17Z" fill="black"/>
<path d="M33 18.5745H9.24V15.6705L33 15.6705V18.5745Z" fill="black"/>
</svg>
